<svg width="24" height="23" viewBox="0 0 24 23" fill="none" xmlns="http://www.w3.org/2000/svg">
<path d="M22.0156 9.68679L12.7068 1.51022C12.4042 1.24441 12.0056 1.10056 11.5945 1.10873C11.1834 1.1169 10.7915 1.27647 10.5008 1.55408L1.93936 9.7281L1.5 10.1475V22.1977H9.75V14.6791H14.25V22.1977H22.5V10.1123L22.0156 9.68679ZM11.6268 2.54055C11.64 2.54055 11.6318 2.54328 11.6262 2.5486C11.6203 2.54328 11.6136 2.54055 11.6268 2.54055ZM21 20.7656H15.75V14.6791C15.75 14.2993 15.592 13.935 15.3107 13.6664C15.0294 13.3978 14.6478 13.247 14.25 13.247H9.75C9.35218 13.247 8.97064 13.3978 8.68934 13.6664C8.40804 13.935 8.25 14.2993 8.25 14.6791V20.7656H3V10.7407L11.6268 2.56673C11.6274 2.56619 11.6274 2.5657 11.6279 2.56516L21 10.7407V20.7656Z" fill="white"/>
</svg>
