<svg width="25" height="24" viewBox="0 0 25 24" fill="none" xmlns="http://www.w3.org/2000/svg">
<path d="M20.8334 7.95619H14.9875L16.1573 4.60761C16.3678 4.00293 16.2615 3.33262 15.8709 2.81547C15.4803 2.29831 14.8469 1.98901 14.1792 1.98901H12.5C12.1907 1.98901 11.898 2.12029 11.699 2.34704L6.80317 7.95619H4.16671C3.01775 7.95619 2.08337 8.84828 2.08337 9.94525V18.896C2.08337 19.993 3.01775 20.8851 4.16671 20.8851H18.0282C18.452 20.8837 18.8654 20.7596 19.2138 20.5291C19.5622 20.2986 19.8291 19.9726 19.9792 19.5942L22.8511 12.2834C22.8947 12.1717 22.9169 12.0535 22.9167 11.9343V9.94525C22.9167 8.84828 21.9823 7.95619 20.8334 7.95619ZM4.16671 9.94525H6.25004V18.896H4.16671V9.94525ZM20.8334 11.7543L18.0282 18.896H8.33337V9.31074L12.9875 3.97807H14.1813L12.5542 8.63545C12.5014 8.78494 12.4867 8.9443 12.5112 9.10032C12.5358 9.25634 12.599 9.40451 12.6955 9.53256C12.7921 9.6606 12.9192 9.76483 13.0663 9.8366C13.2135 9.90838 13.3765 9.94562 13.5417 9.94525H20.8334V11.7543Z" fill="white"/>
</svg>
