<svg width="26" height="26" viewBox="0 0 26 26" fill="none" xmlns="http://www.w3.org/2000/svg">
<rect width="26" height="26" fill="#E5E5E5"/>
<rect x="-29" y="-78" width="265" height="1348" fill="black"/>
<path d="M25 13C25 6.375 19.625 1 13 1C6.375 1 1 6.375 1 13C1 19.625 6.375 25 13 25C19.625 25 25 19.625 25 13Z" stroke="white" stroke-miterlimit="10"/>
<path d="M21.0652 6.03796L11.0806 9.14427C10.3949 9.35757 9.772 9.67699 9.24978 10.0832C8.72756 10.4893 8.31687 10.9738 8.04264 11.5071L4.04881 19.2729C3.99923 19.3693 3.98709 19.4748 4.0139 19.5764C4.04071 19.6781 4.10529 19.7714 4.19962 19.8447C4.29395 19.9181 4.4139 19.9683 4.54459 19.9892C4.67527 20.01 4.81096 20.0006 4.93481 19.962L14.9194 16.8557C15.6051 16.6424 16.228 16.323 16.7502 15.9168C17.2724 15.5107 17.6831 15.0262 17.9574 14.4929L21.9512 6.72707C22.0008 6.63074 22.0129 6.52521 21.9861 6.42357C21.9593 6.32192 21.8947 6.22863 21.8004 6.15526C21.706 6.08189 21.5861 6.03166 21.4554 6.01081C21.3247 5.98996 21.189 5.9994 21.0652 6.03796V6.03796ZM13 14.5903C12.5956 14.5903 12.2003 14.497 11.8641 14.3223C11.5278 14.1475 11.2658 13.8991 11.111 13.6086C10.9563 13.318 10.9158 12.9982 10.9947 12.6898C11.0736 12.3813 11.2683 12.0979 11.5542 11.8755C11.8402 11.6531 12.2045 11.5017 12.6011 11.4403C12.9977 11.3789 13.4088 11.4104 13.7824 11.5308C14.156 11.6512 14.4754 11.855 14.7 12.1165C14.9247 12.378 15.0446 12.6855 15.0446 13C15.0446 13.4218 14.8292 13.8263 14.4458 14.1245C14.0623 14.4227 13.5423 14.5903 13 14.5903Z" fill="white"/>
</svg>
