<svg width="26" height="25" viewBox="0 0 26 25" fill="none" xmlns="http://www.w3.org/2000/svg">
<path d="M21.6667 8.27446H4.33337V6.20584H21.6667V8.27446ZM19.5 2.0686H6.50004V4.13722H19.5V2.0686ZM11.1714 21.8239L7.59637 18.4107L9.11304 16.9627L11.1714 18.9279L16.913 13.446L18.4297 14.894L11.1714 21.8239Z" fill="white"/>
<path d="M23.8333 10.343H2.16667C1.59203 10.343 1.04093 10.561 0.634602 10.9489C0.228273 11.3368 0 11.863 0 12.4116L0 22.7547C0 23.3034 0.228273 23.8295 0.634602 24.2175C1.04093 24.6054 1.59203 24.8234 2.16667 24.8234H23.8333C24.408 24.8234 24.9591 24.6054 25.3654 24.2175C25.7717 23.8295 26 23.3034 26 22.7547V12.4116C26 11.863 25.7717 11.3368 25.3654 10.9489C24.9591 10.561 24.408 10.343 23.8333 10.343ZM23.8333 22.7547H2.16667V12.4116H23.8333V22.7547Z" fill="white"/>
</svg>
