<svg width="31" height="31" viewBox="0 0 31 31" fill="none" xmlns="http://www.w3.org/2000/svg">
<path d="M15.5 8.25V22.8853M22.75 15.5H8.25M30 25.1667V5.83333C30 4.55145 29.4908 3.32208 28.5843 2.41565C27.6779 1.50922 26.4485 1 25.1667 1H5.83333C4.55145 1 3.32208 1.50922 2.41565 2.41565C1.50922 3.32208 1 4.55145 1 5.83333V25.1667C1 26.4485 1.50922 27.6779 2.41565 28.5843C3.32208 29.4908 4.55145 30 5.83333 30H25.1667C26.4485 30 27.6779 29.4908 28.5843 28.5843C29.4908 27.6779 30 26.4485 30 25.1667Z" stroke="white" stroke-width="1.2381" stroke-linecap="round" stroke-linejoin="round"/>
</svg>
