<svg width="45" height="45" viewBox="0 0 45 45" fill="none" xmlns="http://www.w3.org/2000/svg">
<g clip-path="url(#clip0_700_130)">
<path d="M22.7549 4.21898C12.4734 4.08012 4.07987 12.4737 4.21874 22.7551C4.35585 32.6156 12.3847 40.6444 22.2451 40.7815C32.5283 40.9221 40.9201 32.5286 40.7795 22.2471C40.6441 12.3849 32.6153 4.35609 22.7549 4.21898ZM33.866 32.9812C33.831 33.0191 33.7881 33.0487 33.7403 33.0682C33.6925 33.0876 33.6411 33.0963 33.5896 33.0936C33.5381 33.0909 33.4878 33.0769 33.4423 33.0526C33.3968 33.0284 33.3572 32.9944 33.3264 32.9531C32.5402 31.9245 31.5775 31.0439 30.4831 30.3524C28.2454 28.9162 25.41 28.1252 22.5 28.1252C19.5899 28.1252 16.7546 28.9162 14.5169 30.3524C13.4225 31.0436 12.4598 31.9239 11.6736 32.9522C11.6427 32.9935 11.6031 33.0275 11.5577 33.0518C11.5122 33.076 11.4619 33.09 11.4104 33.0927C11.3589 33.0954 11.3074 33.0867 11.2597 33.0673C11.2119 33.0479 11.169 33.0182 11.134 32.9803C8.55498 30.1963 7.09408 26.5584 7.03124 22.7639C6.88798 14.2113 13.906 7.05258 22.4622 7.03148C31.0183 7.01039 37.9687 13.9581 37.9687 22.5002C37.9717 26.3862 36.5063 30.1299 33.866 32.9812Z" fill="#07ACB7"/>
<path d="M22.5 12.6562C20.7668 12.6562 19.1997 13.3058 18.0861 14.4861C16.9725 15.6665 16.4162 17.2986 16.5419 19.0503C16.7968 22.5 19.4695 25.3125 22.5 25.3125C25.5305 25.3125 28.1979 22.5 28.4581 19.0512C28.5882 17.3162 28.0362 15.699 26.9042 14.4967C25.7862 13.3102 24.2218 12.6562 22.5 12.6562Z" fill="#07ACB7"/>
</g>
<defs>
<clipPath id="clip0_700_130">
<rect width="45" height="45" fill="white"/>
</clipPath>
</defs>
</svg>
