<svg width="17" height="20" viewBox="0 0 17 20" fill="none" xmlns="http://www.w3.org/2000/svg">
<path d="M7.34091 0C5.82791 0 4.61241 1.25005 4.61241 2.76132V3.09708H1.54545C1.11968 3.09708 0.772727 3.44205 0.772727 3.86539V4.63371H0V6.17034H1.54545V17.6951C1.54545 18.9589 2.5925 20 3.86364 20H13.1364C14.4075 20 15.4545 18.9589 15.4545 17.6951V6.17034H17V4.63371H16.2273V3.86539C16.2273 3.44205 15.8803 3.09708 15.4545 3.09708H12.3876V2.76055C12.3876 1.25005 11.1721 0 9.65909 0H7.34091ZM7.34091 1.58426H9.65909C10.2804 1.58426 10.7942 2.08828 10.7942 2.76055V3.09708H6.205V2.76055C6.205 2.08828 6.71886 1.58503 7.34014 1.58503L7.34091 1.58426ZM3.09091 6.17034H7.05114C7.14695 6.18032 7.242 6.19415 7.34091 6.19415H9.65909C9.758 6.19415 9.85227 6.18032 9.94886 6.17034H13.9091V17.6951C13.9091 18.1276 13.5714 18.4634 13.1364 18.4634H3.86364C3.42859 18.4634 3.09091 18.1276 3.09091 17.6951V6.17034ZM4.63636 7.70696V16.9267H6.18182V7.70696H4.63636ZM7.72727 7.70696V16.9267H9.27273V7.70696H7.72727ZM10.8182 7.70696V16.9267H12.3636V7.70696H10.8182Z" fill="white"/>
</svg>
