<svg width="24" height="22" viewBox="0 0 24 22" fill="none" xmlns="http://www.w3.org/2000/svg">
<path d="M14.402 17.6021C18.2993 17.6021 20.2485 17.6021 21.4587 16.4593C22.67 15.3174 22.67 13.4783 22.67 9.80106C22.67 6.12384 22.67 4.28474 21.4587 3.14286C20.2485 2 18.2993 2 14.402 2H10.268C6.37067 2 4.42149 2 3.21126 3.14286C2 4.28474 2 6.12384 2 9.80106C2 13.4783 2 15.3174 3.21126 16.4593C3.88614 17.097 4.79045 17.3788 6.134 17.5027" stroke="black" stroke-width="2.16667" stroke-linecap="round" stroke-linejoin="round"/>
<path d="M14.4021 17.6022C13.1247 17.6022 11.7171 18.0898 10.4324 18.7188C8.3675 19.73 7.33504 20.2361 6.82655 19.9133C6.31807 19.5915 6.41419 18.592 6.60745 16.5939L6.65086 16.1395" stroke="black" stroke-width="2.16667" stroke-linecap="round"/>
</svg>
