<svg width="24" height="20" viewBox="0 0 24 20" fill="none" xmlns="http://www.w3.org/2000/svg">
<path d="M22.4423 8.88611C22.9558 9.60221 22.9558 10.5689 22.4423 11.2839C20.8249 13.535 16.9444 18.17 12.4139 18.17C7.88337 18.17 4.00287 13.535 2.38545 11.2839C2.13562 10.941 2 10.5192 2 10.085C2 9.65081 2.13562 9.22899 2.38545 8.88611C4.00287 6.63501 7.88337 2 12.4139 2C16.9444 2 20.8249 6.63501 22.4423 8.88611V8.88611Z" stroke="black" stroke-width="2.16667" stroke-linecap="round" stroke-linejoin="round"/>
<path d="M12.4138 13.55C14.2087 13.55 15.6638 11.9987 15.6638 10.085C15.6638 8.17133 14.2087 6.62 12.4138 6.62C10.6189 6.62 9.16382 8.17133 9.16382 10.085C9.16382 11.9987 10.6189 13.55 12.4138 13.55Z" stroke="black" stroke-width="2.16667" stroke-linecap="round" stroke-linejoin="round"/>
</svg>
