<svg width="15" height="14" viewBox="0 0 15 14" fill="none" xmlns="http://www.w3.org/2000/svg">
<path d="M14.7701 12.5947L11.3697 9.421C12.1883 8.4038 12.6303 7.16566 12.6288 5.89344C12.6288 2.64382 9.79614 0 6.3144 0C2.83266 0 0 2.64382 0 5.89344C0 9.14306 2.83266 11.7869 6.3144 11.7869C7.67749 11.7883 9.00407 11.3758 10.0939 10.6117L13.4944 13.7854C13.6665 13.929 13.891 14.0057 14.1218 13.9997C14.3526 13.9936 14.5721 13.9054 14.7354 13.753C14.8986 13.6006 14.9932 13.3957 14.9996 13.1803C15.0061 12.9649 14.924 12.7554 14.7701 12.5947V12.5947ZM1.80411 5.89344C1.80411 5.06086 2.06864 4.24698 2.56423 3.55471C3.05983 2.86245 3.76424 2.32289 4.58839 2.00428C5.41253 1.68566 6.3194 1.6023 7.19431 1.76473C8.06922 1.92715 8.87288 2.32808 9.50365 2.9168C10.1344 3.50553 10.564 4.25561 10.738 5.07219C10.9121 5.88877 10.8227 6.73518 10.4814 7.50438C10.14 8.27359 9.56189 8.93104 8.82018 9.39359C8.07847 9.85615 7.20645 10.103 6.3144 10.103C5.11864 10.1017 3.97226 9.65776 3.12673 8.8686C2.2812 8.07943 1.80555 7.00948 1.80411 5.89344V5.89344Z" fill="white"/>
</svg>
